<svg width="42" height="42" viewBox="0 0 42 42" fill="none" xmlns="http://www.w3.org/2000/svg">
<path d="M35.2829 0.859375H6.8838C3.63944 0.859375 1 3.49174 1 6.7274V35.0504C1 38.2861 3.63944 40.9185 6.8838 40.9185H35.2829C38.5273 40.9185 41.1667 38.2861 41.1667 35.0504V6.7274C41.1667 3.49174 38.5273 0.859375 35.2829 0.859375ZM38.8132 35.0504C38.8132 36.9918 37.2295 38.5712 35.2829 38.5712H6.8838C4.93724 38.5712 3.35352 36.9918 3.35352 35.0504V6.7274C3.35352 4.78606 4.93724 3.20659 6.8838 3.20659H35.2829C37.2295 3.20659 38.8132 4.78606 38.8132 6.7274V35.0504Z" fill="#070707" stroke="#070707" stroke-width="0.5"/>
</svg>
